<svg id="Layer_2" data-name="Layer 2" xmlns="http://www.w3.org/2000/svg" xmlns:xlink="http://www.w3.org/1999/xlink" viewBox="0 0 263.69 263.69"><defs><style>.cls-1{fill:none;}.cls-2{clip-path:url(#clip-path);}.cls-3,.cls-4{stroke:#000;stroke-miterlimit:10;stroke-width:8px;}.cls-3{fill:url(#New_Pattern_Swatch_1);}.cls-4{fill:url(#New_Pattern_Swatch_1-3);}</style><clipPath id="clip-path" transform="translate(-164.67 -272.91)"><rect class="cls-1" x="206.52" y="314.76" width="180" height="180"/></clipPath><pattern id="New_Pattern_Swatch_1" data-name="New Pattern Swatch 1" width="90" height="90" patternUnits="userSpaceOnUse" viewBox="0 0 90 90"><rect class="cls-1" width="90" height="90"/></pattern><pattern id="New_Pattern_Swatch_1-3" data-name="New Pattern Swatch 1" x="-164.67" y="-272.91" width="90" height="90" patternUnits="userSpaceOnUse" viewBox="0 0 90 90"><rect class="cls-1" width="90" height="90"/></pattern></defs><title>MOAR CIRCLES</title><g class="cls-2"><path id="_Group_" data-name="&lt;Group&gt;" class="cls-3" d="M341.52,359.76a45,45,0,1,1-45-45A45,45,0,0,1,341.52,359.76Zm-90,0a45,45,0,1,0,45,45A45,45,0,0,0,251.52,359.76Zm90,0a45,45,0,1,0,45,45A45,45,0,0,0,341.52,359.76Zm-45,45a45,45,0,1,0,45,45A45,45,0,0,0,296.52,404.76Zm0-90a90,90,0,1,0,90,90A90,90,0,0,0,296.52,314.76Z" transform="translate(-164.67 -272.91)"/><circle class="cls-4" cx="221.84" cy="41.84" r="37.84"/><circle class="cls-4" cx="221.84" cy="221.84" r="37.84"/><circle class="cls-4" cx="41.84" cy="221.84" r="37.84"/><circle class="cls-4" cx="41.84" cy="41.84" r="37.84"/></g></svg>